<svg xmlns="http://www.w3.org/2000/svg" viewBox="0 0 600 200">
  <defs>
    <linearGradient id="bg2" x1="0%" y1="0%" x2="100%" y2="100%">
      <stop offset="0%" style="stop-color:#4338CA;stop-opacity:1" />
      <stop offset="100%" style="stop-color:#3730A3;stop-opacity:1" />
    </linearGradient>
  </defs>
  <rect width="600" height="200" rx="12" fill="url(#bg2)"/>
  <!-- Calendar icon -->
  <rect x="35" y="55" width="60" height="55" rx="6" fill="rgba(255,255,255,0.15)"/>
  <rect x="35" y="55" width="60" height="18" rx="6" fill="rgba(255,255,255,0.25)"/>
  <circle cx="50" cy="48" r="3" fill="rgba(255,255,255,0.4)"/>
  <circle cx="80" cy="48" r="3" fill="rgba(255,255,255,0.4)"/>
  <line x1="50" y1="45" x2="50" y2="58" stroke="rgba(255,255,255,0.4)" stroke-width="2" stroke-linecap="round"/>
  <line x1="80" y1="45" x2="80" y2="58" stroke="rgba(255,255,255,0.4)" stroke-width="2" stroke-linecap="round"/>
  <rect x="45" y="80" width="10" height="8" rx="2" fill="rgba(255,255,255,0.3)"/>
  <rect x="60" y="80" width="10" height="8" rx="2" fill="rgba(255,255,255,0.3)"/>
  <rect x="75" y="80" width="10" height="8" rx="2" fill="rgba(255,255,255,0.3)"/>
  <rect x="45" y="93" width="10" height="8" rx="2" fill="rgba(255,255,255,0.3)"/>
  <rect x="60" y="93" width="10" height="8" rx="2" fill="rgba(255,255,255,0.5)"/>
  <!-- People icons -->
  <circle cx="520" cy="60" r="12" fill="rgba(255,255,255,0.15)"/>
  <circle cx="545" cy="65" r="10" fill="rgba(255,255,255,0.12)"/>
  <circle cx="500" cy="68" r="9" fill="rgba(255,255,255,0.10)"/>
  <path d="M505,95 Q520,80 535,95 Q545,80 555,95" fill="rgba(255,255,255,0.12)"/>
  <!-- Text -->
  <text x="300" y="75" text-anchor="middle" font-family="system-ui, -apple-system, sans-serif" font-size="30" font-weight="bold" fill="white">Promote Your Convention</text>
  <text x="300" y="110" text-anchor="middle" font-family="system-ui, -apple-system, sans-serif" font-size="16" fill="rgba(255,255,255,0.85)">Get your gaming expo in front of</text>
  <text x="300" y="132" text-anchor="middle" font-family="system-ui, -apple-system, sans-serif" font-size="16" fill="rgba(255,255,255,0.85)">active tabletop players.</text>
  <!-- CTA -->
  <rect x="225" y="150" width="150" height="32" rx="16" fill="white"/>
  <text x="300" y="171" text-anchor="middle" font-family="system-ui, -apple-system, sans-serif" font-size="13" font-weight="bold" fill="#4338CA">Learn More</text>
</svg>
