<svg xmlns="http://www.w3.org/2000/svg" viewBox="0 0 100 120" fill="#3D6B3D">
  <!-- Toes -->
  <ellipse cx="20" cy="12" rx="8" ry="10"/>
  <ellipse cx="36" cy="5" rx="7" ry="9"/>
  <ellipse cx="52" cy="3" rx="6.5" ry="8"/>
  <ellipse cx="67" cy="5" rx="6" ry="8"/>
  <ellipse cx="80" cy="12" rx="5.5" ry="7"/>

  <!-- Main foot pad -->
  <path d="M15 35 Q5 55 12 85 Q20 110 50 115 Q80 110 88 85 Q95 55 85 35 Q75 25 50 28 Q25 25 15 35 Z"/>

  <!-- Meeple cutout -->
  <path fill="#F5F5F0" d="M50 45 Q42 45 38 52 L38 58 Q38 62 42 62 L42 85 Q42 90 50 90 Q58 90 58 85 L58 62 Q62 62 62 58 L62 52 Q58 45 50 45 Z M50 38 A7 7 0 1 0 50 52 A7 7 0 1 0 50 38 Z"/>

  <!-- Swoosh lines -->
  <path fill="none" stroke="#3D6B3D" stroke-width="2" stroke-linecap="round" d="M8 50 Q2 70 8 90"/>
  <path fill="none" stroke="#3D6B3D" stroke-width="2" stroke-linecap="round" d="M3 55 Q-2 72 3 88"/>

  <!-- Sparkles -->
  <path d="M18 22 L20 26 L18 30 L16 26 Z"/>
  <path d="M85 25 L86.5 28 L85 31 L83.5 28 Z"/>
  <path d="M92 55 L93.5 58 L92 61 L90.5 58 Z"/>
  <path d="M88 95 L89 97 L88 99 L87 97 Z"/>
</svg>
